<svg xmlns="http://www.w3.org/2000/svg" width="358" height="195" fill="none" viewBox="0 0 358 195"><path fill="#fff" fill-opacity=".75" d="M162.5 8.45499C89.8033 31.4264 22.7797 127.476 4.74049 155.062C2.60587 158.326 4.99474 162.5 8.89505 162.5H160.507C161.787 162.5 163.018 162.009 163.947 161.129L317.879 15.2054C320.844 12.395 319.369 7.47418 315.332 6.8509C288.44 2.69929 211.518 -7.03417 162.5 8.45499Z"/><path fill="#fff" fill-opacity=".75" d="M195 40.955C122.303 63.9264 55.2797 159.976 37.2405 187.562C35.1059 190.826 37.4947 195 41.395 195H193.007C194.287 195 195.518 194.509 196.447 193.629L350.379 47.7054C353.344 44.895 351.869 39.9742 347.832 39.3509C320.94 35.1993 244.018 25.4658 195 40.955Z"/></svg>