<svg xmlns="http://www.w3.org/2000/svg" width="500" height="500" fill="none" viewBox="0 0 500 500"><rect width="500" height="500" fill="url(#paint0_linear_6_36)"/><path fill="#fff" fill-opacity=".75" d="M232.5 158.455C159.803 181.426 92.7797 277.476 74.7405 305.062C72.6059 308.326 74.9947 312.5 78.895 312.5H230.507C231.787 312.5 233.018 312.009 233.947 311.129L387.879 165.205C390.844 162.395 389.369 157.474 385.332 156.851C358.44 152.699 281.518 142.966 232.5 158.455Z"/><path fill="#fff" fill-opacity=".75" d="M265 190.955C192.303 213.926 125.28 309.976 107.24 337.562C105.106 340.826 107.495 345 111.395 345H263.007C264.287 345 265.518 344.509 266.447 343.629L420.379 197.705C423.344 194.895 421.869 189.974 417.832 189.351C390.94 185.199 314.018 175.466 265 190.955Z"/><defs><linearGradient id="paint0_linear_6_36" x1="250" x2="250" y1="0" y2="500" gradientUnits="userSpaceOnUse"><stop stop-color="#A85EE2"/><stop offset="1" stop-color="#9136D8"/></linearGradient></defs></svg>